# xmcd
#
# Track frame offsets:
#	150
#	14428
#	30675
#	43191
#	61067
#	72005
#	91338
#	102821
#	123082
#	137994
#	149330
#	164009
#
# Disc length: 2361 seconds
# Revision: 0
# Processed by: cddbd v1.5.2PL0 Copyright (c) Steve Scherf et al.
# Submitted via: dBpowerAMP V12.0
#
DISCID=a409370c
DTITLE=Jeff Scroggins and Colorado - Over the Line
DYEAR=2019
DGENRE=Blugrass
TTITLE0=Big Train
TTITLE1=Piney River Girl
TTITLE2=Curse the Ohio
TTITLE3=Darcy Farrow
TTITLE4=Boardwalk
TTITLE5=A Few Old Memories
TTITLE6=Over the Line
TTITLE7=The Future's Not What It Used To Be
TTITLE8=Zig Zag
TTITLE9=Hide Your Heart
TTITLE10=Ashes to Ashes
TTITLE11=Headin' West
EXTD=
EXTT0=
EXTT1=
EXTT2=
EXTT3=
EXTT4=
EXTT5=
EXTT6=
EXTT7=
EXTT8=
EXTT9=
EXTT10=
EXTT11=
PLAYORDER=
